<svg width="16" height="16" viewBox="0 0 16 16" fill="none" xmlns="http://www.w3.org/2000/svg">
<path d="M8 0L7.77619 0.00307537C3.46354 0.121731 0 3.65885 0 8C0 12.408 3.584 16 8 16C12.408 16 16 12.408 16 8C16 3.584 12.408 0 8 0ZM6.416 4.8C6.656 4.56 7.032 4.56 7.264 4.8L10.056 7.576C10.168 7.688 10.232 7.84 10.232 8C10.232 8.16 10.168 8.312 10.056 8.424L7.264 11.2C7.152 11.32 7 11.376 6.848 11.376C6.688 11.376 6.536 11.32 6.416 11.2C6.184 10.96 6.184 10.584 6.424 10.352L8.784 8L6.424 5.648C6.184 5.416 6.184 5.032 6.416 4.8Z" fill="white"/>
</svg>
