<svg width="22" height="23" viewBox="0 0 22 23" fill="none" xmlns="http://www.w3.org/2000/svg">
<path d="M7.63 21.5894V18.073C7.63 17.1753 8.363 16.4477 9.26721 16.4477H12.5725C13.0067 16.4477 13.4232 16.6189 13.7302 16.9237C14.0372 17.2285 14.2097 17.6419 14.2097 18.073V21.5894C14.207 21.9625 14.3544 22.3214 14.6192 22.5862C14.8841 22.8511 15.2445 23 15.6204 23H17.8754C18.9286 23.0027 19.9396 22.5893 20.6853 21.8509C21.4309 21.1126 21.85 20.11 21.85 19.0645V9.04689C21.85 8.20233 21.4729 7.40122 20.8203 6.85937L13.1491 0.77725C11.8147 -0.289154 9.90278 -0.254723 8.6082 0.859026L1.11206 6.85937C0.428652 7.38525 0.0201851 8.18874 0 9.04689V19.0543C0 21.2334 1.77949 23 3.9746 23H6.17814C6.95891 23 7.59345 22.3747 7.59911 21.5996L7.63 21.5894Z" fill="#CBC6C6"/>
</svg>
