<svg width="32" height="21" viewBox="0 0 32 21" fill="none" xmlns="http://www.w3.org/2000/svg">
<path d="M27.9764 0H8.60815C7.53848 0 6.67133 0.8543 6.67133 1.90812C6.67133 2.96193 7.53848 3.81623 8.60815 3.81623H27.9764C29.046 3.81623 29.9132 2.96193 29.9132 1.90812C29.9132 0.8543 29.046 0 27.9764 0Z" fill="#CBC6C6"/>
<path d="M4.7345 1.90826C4.73232 1.40303 4.52684 0.91926 4.16314 0.563038C3.40772 -0.176774 2.18764 -0.176774 1.43222 0.563038C1.06846 0.91926 0.862974 1.40303 0.860855 1.90826C0.84639 2.03187 0.84639 2.15673 0.860855 2.28034C0.882766 2.40467 0.918476 2.52625 0.967381 2.64288C1.01937 2.75588 1.08093 2.8644 1.15138 2.96726C1.22092 3.07424 1.30209 3.1734 1.39348 3.26302C1.48161 3.34948 1.57899 3.42629 1.68401 3.492C1.78599 3.56516 1.89657 3.62604 2.01326 3.67327C2.14164 3.73886 2.27849 3.78704 2.42 3.81638C2.54547 3.83021 2.67221 3.83021 2.79768 3.81638C3.30912 3.81679 3.79998 3.61787 4.16314 3.26302C4.25453 3.1734 4.3357 3.07424 4.40524 2.96726C4.47569 2.8644 4.53725 2.75588 4.58924 2.64288C4.65104 2.52768 4.69976 2.4061 4.7345 2.28034C4.74897 2.15673 4.74897 2.03187 4.7345 1.90826Z" fill="#CBC6C6"/>
<path d="M4.73455 10.4947C4.74895 10.3711 4.74895 10.2462 4.73455 10.1226C4.70108 9.99947 4.65229 9.88093 4.58928 9.7696C4.53941 9.65255 4.47774 9.54069 4.40529 9.43568C4.33816 9.3299 4.2567 9.2336 4.16318 9.14946C3.40776 8.40965 2.18769 8.40965 1.43226 9.14946C1.0685 9.50569 0.863019 9.98945 0.860901 10.4947C0.864653 10.7461 0.913861 10.9949 1.00616 11.2293C1.0547 11.3422 1.11305 11.4507 1.18048 11.5537C1.25414 11.6574 1.33851 11.7533 1.43226 11.8399C1.51785 11.9319 1.61554 12.0121 1.72279 12.0784C1.82477 12.1516 1.93529 12.2125 2.05205 12.2597C2.17013 12.3086 2.29367 12.3439 2.42004 12.3646C2.54394 12.392 2.67074 12.4048 2.79772 12.4028C2.92319 12.4171 3.04993 12.4171 3.1754 12.4028C3.29863 12.382 3.41896 12.3468 3.53372 12.2979C3.65362 12.251 3.76741 12.1901 3.87266 12.1166C3.97991 12.0503 4.0776 11.97 4.16318 11.8781C4.25651 11.7938 4.33798 11.6975 4.40529 11.5919C4.47973 11.4914 4.54153 11.3826 4.58928 11.2675C4.65544 11.1408 4.70428 11.0061 4.73455 10.8668C4.74944 10.7432 4.74944 10.6183 4.73455 10.4947Z" fill="#CBC6C6"/>
<path d="M4.73457 19.0812C4.74892 18.9576 4.74892 18.8328 4.73457 18.7092C4.7011 18.583 4.65232 18.4613 4.58931 18.3466C4.53732 18.2336 4.47577 18.1251 4.40531 18.0222C4.33801 17.9166 4.25654 17.8203 4.16321 17.736C3.40779 16.9962 2.18771 16.9962 1.43229 17.736C1.33896 17.8203 1.25749 17.9166 1.19019 18.0222C1.11974 18.1251 1.05818 18.2336 1.00619 18.3466C0.955953 18.4628 0.920183 18.5845 0.899665 18.7092C0.872367 18.8313 0.859415 18.9561 0.860928 19.0812C0.863107 19.5865 1.06859 20.0702 1.43229 20.4265C1.51787 20.5184 1.61556 20.5987 1.72281 20.665C1.8248 20.7382 1.93532 20.7991 2.05207 20.8462C2.17016 20.8952 2.29369 20.9304 2.42007 20.9512C2.54397 20.9786 2.67077 20.9914 2.79775 20.9894C2.92322 21.0036 3.04996 21.0036 3.17543 20.9894C3.29866 20.9685 3.41899 20.9333 3.53374 20.8844C3.65364 20.8375 3.76743 20.7767 3.87269 20.7031C3.97994 20.6368 4.07763 20.5566 4.16321 20.4646C4.25654 20.3803 4.33801 20.2841 4.40531 20.1784C4.47982 20.078 4.54162 19.9691 4.58931 19.854C4.65541 19.7273 4.70425 19.5926 4.73457 19.4533C4.74946 19.3297 4.74946 19.2048 4.73457 19.0812Z" fill="#CBC6C6"/>
<path d="M29.9132 8.58655H8.60815C7.53848 8.58655 6.67133 9.44085 6.67133 10.4947C6.67133 11.5485 7.53848 12.4028 8.60815 12.4028H29.9132C30.9829 12.4028 31.85 11.5485 31.85 10.4947C31.85 9.44085 30.9829 8.58655 29.9132 8.58655Z" fill="#CBC6C6"/>
<path d="M21.1975 17.1731H8.60815C7.53848 17.1731 6.67133 18.0274 6.67133 19.0812C6.67133 20.135 7.53848 20.9893 8.60815 20.9893H21.1975C22.2672 20.9893 23.1343 20.135 23.1343 19.0812C23.1343 18.0274 22.2672 17.1731 21.1975 17.1731Z" fill="#CBC6C6"/>
</svg>
