<svg xmlns="http://www.w3.org/2000/svg" viewBox="0 0 322.69 138.82"><defs><style>.cls-1{fill:#fff;}</style></defs><g id="Layer_2" data-name="Layer 2"><g id="Layer_1-2" data-name="Layer 1"><path class="cls-1" d="M74.58,63.53H46.39l-7.13,19.6h-19L52.94,0h19l32.7,83.13h-19l-5.81-16A5.51,5.51,0,0,0,74.58,63.53Zm-2-15.42L62.44,20.81,55.08,40.63a5.54,5.54,0,0,0,5.2,7.48Z"/><path class="cls-1" d="M105.73,0h35Q153.55,0,162,8a26.32,26.32,0,0,1,8.44,19.88A26.35,26.35,0,0,1,162,47.79q-8.4,8-21.27,8H123.58V83.13H105.73Zm34.43,16.06H123.58V29.53a10.25,10.25,0,0,0,10.24,10.24h6.34a12.37,12.37,0,0,0,8.9-3.42,11.23,11.23,0,0,0,3.56-8.41,11.3,11.3,0,0,0-3.56-8.43A12.31,12.31,0,0,0,140.16,16.06Z"/><path class="cls-1" d="M193.59,67.13h44.52v7.09a8.91,8.91,0,0,1-8.91,8.91H175.73V0h53.42a7.75,7.75,0,0,1,7.74,7.74v8.32h-43.3V32.69h33.79v16H193.59Z"/><path class="cls-1" d="M280,52.87,264.82,75.55a17,17,0,0,1-14.15,7.58H239.54l29.1-43.36L241.92,0h20.23L280,26.72,292.18,8.36A18.74,18.74,0,0,1,307.78,0h10.13L291.19,39.77l29.1,43.36H300.12Z"/><path class="cls-1" d="M21,127.53H49.29l-2.13,10.15L0,137.45,19.91,84.87l37.66.06-2.1,10.19H28l-2.25,10.56H47.16L45,115.83H23.51Z"/><path class="cls-1" d="M67.85,129a12.39,12.39,0,0,0,6.51-1.69A5.73,5.73,0,0,0,77.2,122,4.69,4.69,0,0,0,75,118.26a25.44,25.44,0,0,0-5.39-3q-3.17-1.32-6.32-2.94a16,16,0,0,1-5.39-4.49,10.68,10.68,0,0,1-2.23-6.77,15.8,15.8,0,0,1,5.54-12.36q5.54-4.89,15-4.89a25.37,25.37,0,0,1,6.26.76,22.52,22.52,0,0,1,4.94,1.76,30.68,30.68,0,0,1,3.41,2.06,10.23,10.23,0,0,1,2.06,1.82l.66.74-7.84,6.8q-.43-.43-1.23-1.14a16.07,16.07,0,0,0-3.31-1.86,12.45,12.45,0,0,0-5.24-1.15A9.59,9.59,0,0,0,70,95.2a5,5,0,0,0-2.11,4.23,4.35,4.35,0,0,0,1.62,3.27,13.75,13.75,0,0,0,4,2.48q2.37,1,5.2,2.38A48.93,48.93,0,0,1,84,110.43a12.9,12.9,0,0,1,4,4.06,10.72,10.72,0,0,1,1.62,5.87q0,8.42-5.82,13.44t-16.25,5a27.48,27.48,0,0,1-7.08-.9,25.24,25.24,0,0,1-5.67-2.15,32.24,32.24,0,0,1-4-2.54,15.42,15.42,0,0,1-2.43-2.17l-.77-.92,7.76-6.55a17.61,17.61,0,0,0,1.51,1.51,18.23,18.23,0,0,0,4.23,2.41A16,16,0,0,0,67.85,129Z"/><path class="cls-1" d="M100.43,84.93h21.19a16,16,0,0,1,11.69,4.75,14.94,14.94,0,0,1,4.79,10.92,18.07,18.07,0,0,1-6.29,14.26,22.75,22.75,0,0,1-15.49,5.5h-12.1l-3.64,17.32H89.29Zm19.39,10.19H109.63l-3.24,15h11.07a9,9,0,0,0,6.47-2.52,8.12,8.12,0,0,0,2.65-6.13,6.07,6.07,0,0,0-2-4.48A6.58,6.58,0,0,0,119.82,95.12Z"/><path class="cls-1" d="M135.66,114.1q0-11.91,9.65-21.09a31.41,31.41,0,0,1,22.31-9.18q11.65,0,19.09,7.19a23.37,23.37,0,0,1,7.43,17.42,27.59,27.59,0,0,1-4.45,15,32.9,32.9,0,0,1-11.79,11.2,31,31,0,0,1-15.58,4.16q-11.65,0-19.16-7.19A23.36,23.36,0,0,1,135.66,114.1Zm31.19-20.19a18.5,18.5,0,0,0-13.45,5.92,18.77,18.77,0,0,0-5.9,13.61,14.75,14.75,0,0,0,4.32,10.83A15,15,0,0,0,163,128.63a20.05,20.05,0,0,0,19.35-19.57,14.6,14.6,0,0,0-4.38-10.81A15.09,15.09,0,0,0,166.85,93.91Z"/><path class="cls-1" d="M191.7,137.68l11.15-52.75h22.29a15.4,15.4,0,0,1,11.27,4.53A14.4,14.4,0,0,1,241,100a18.6,18.6,0,0,1-1.36,7.19,15.35,15.35,0,0,1-3.29,5.16,29,29,0,0,1-3.81,3.17,13.36,13.36,0,0,1-3.24,1.73l-1.36.44,7.1,20H223.26L217,119.22H206.93L203,137.68Zm29-28.62a9.58,9.58,0,0,0,6.12-2.11,6.84,6.84,0,0,0,2.67-5.65,6.49,6.49,0,0,0-1.55-4.37,5.09,5.09,0,0,0-4.08-1.81H212l-3,13.94Z"/><path class="cls-1" d="M243.78,84.93H285.2l-2.1,10.19H268l-9,42.56H247.68l9.05-42.56H241.68Z"/><path class="cls-1" d="M297,129a12.44,12.44,0,0,0,6.51-1.69,5.73,5.73,0,0,0,2.84-5.3,4.69,4.69,0,0,0-2.23-3.75,25.44,25.44,0,0,0-5.39-3q-3.17-1.32-6.33-2.94a16,16,0,0,1-5.38-4.49,10.68,10.68,0,0,1-2.23-6.77,15.8,15.8,0,0,1,5.54-12.36q5.54-4.89,15-4.89a25.43,25.43,0,0,1,6.26.76,22.71,22.71,0,0,1,4.94,1.76,29.6,29.6,0,0,1,3.4,2.06A9.69,9.69,0,0,1,322,90.23l.67.74-7.84,6.8q-.44-.43-1.23-1.14a16.07,16.07,0,0,0-3.31-1.86,12.45,12.45,0,0,0-5.24-1.15,9.59,9.59,0,0,0-5.87,1.58,5,5,0,0,0-2.11,4.23,4.37,4.37,0,0,0,1.61,3.27,14,14,0,0,0,4,2.48q2.37,1,5.2,2.38a47.79,47.79,0,0,1,5.2,2.87,12.83,12.83,0,0,1,4,4.06,10.8,10.8,0,0,1,1.61,5.87q0,8.42-5.81,13.44t-16.26,5a27.59,27.59,0,0,1-7.08-.9,25.33,25.33,0,0,1-5.66-2.15,32.24,32.24,0,0,1-3.95-2.54,15.42,15.42,0,0,1-2.43-2.17l-.77-.92,7.76-6.55a13,13,0,0,0,5.73,3.92A16.08,16.08,0,0,0,297,129Z"/></g></g></svg>