<svg width="23" height="25" viewBox="0 0 23 25" fill="none" xmlns="http://www.w3.org/2000/svg">
<path d="M8.92895 21.5349C9.55384 21.4027 13.3616 21.4027 13.9865 21.5349C14.5207 21.6583 15.0983 21.9466 15.0983 22.576C15.0673 23.1753 14.7157 23.7066 14.23 24.044C13.6001 24.535 12.8609 24.8459 12.0882 24.958C11.6608 25.0134 11.2409 25.0146 10.8285 24.958C10.0545 24.8459 9.31531 24.535 8.6867 24.0427C8.19971 23.7066 7.84813 23.1753 7.81707 22.576C7.81707 21.9466 8.39475 21.6583 8.92895 21.5349ZM11.5315 0C14.1317 0 16.7878 1.23377 18.3655 3.28083C19.3892 4.59895 19.8588 5.91582 19.8588 7.96288V8.49541C19.8588 10.0653 20.2738 10.9907 21.1869 12.057C21.8788 12.8426 22.1 13.851 22.1 14.945C22.1 16.0378 21.7409 17.0752 21.0216 17.9174C20.08 18.9271 18.7519 19.5717 17.3965 19.6837C15.4324 19.8512 13.467 19.9922 11.4756 19.9922C9.4829 19.9922 7.51879 19.9078 5.55467 19.6837C4.19805 19.5717 2.87 18.9271 1.92956 17.9174C1.21025 17.0752 0.849976 16.0378 0.849976 14.945C0.849976 13.851 1.07235 12.8426 1.76309 12.057C2.70477 10.9907 3.09238 10.0653 3.09238 8.49541V7.96288C3.09238 5.86042 3.61664 4.48565 4.69622 3.13983C6.30131 1.17712 8.87416 0 11.4197 0H11.5315Z" fill="#CBC6C6"/>
</svg>
