<svg width="23" height="16" viewBox="0 0 23 16" fill="none" xmlns="http://www.w3.org/2000/svg">
<path d="M2.8252 10.6852L2.08792 10.9476C0.982013 11.3785 0.408578 11.8282 0.429058 12.2217C0.490497 12.8026 1.20729 13.2336 2.518 13.5521C4.21783 13.9644 5.93813 14.058 7.71988 13.8145V12.1843L6.30677 12.6715C4.83222 13.1399 4.07447 12.7464 4.07447 12.7464C3.84919 12.6152 3.74679 12.2967 4.36118 12.0906L5.13942 11.8282L7.71988 10.985V9.09253L7.06452 9.29864L2.8252 10.6852Z" fill="white"/>
<path d="M13.5975 4.10828V8.96138C14.7034 9.44856 15.6865 9.48604 16.4237 8.98011C17.1815 8.49293 17.5911 7.64973 17.5911 6.37556C17.5911 5.04517 17.3044 4.03333 16.6695 3.35877C16.0961 2.64673 15.0721 2.04712 13.5566 1.57868C11.6724 1.01654 10.075 0.529358 8.80524 0.285767V14.8076L12.2254 15.7632V3.69605C12.2049 2.96528 13.5975 3.02149 13.5975 4.10828Z" fill="white"/>
<path d="M22.2809 11.6034C22.2604 11.0975 21.6051 10.704 20.4377 10.348C19.127 9.95451 18.0006 9.76713 16.7718 9.80461C15.6454 9.82334 14.2938 10.1606 13.0854 10.5166V12.3717L16.4032 11.3036C16.4032 11.3036 17.4067 10.9664 18.2668 11.1725C18.9222 11.3224 18.8812 11.6597 18.2259 11.8658L17.4681 12.1468L13.0854 13.5896V15.4822L15.1334 14.8076L20.0486 13.2149L20.622 12.9713C21.8099 12.5778 22.3423 12.1468 22.2809 11.6034Z" fill="white"/>
</svg>
