<svg width="11" height="9" viewBox="0 0 11 9" fill="none" xmlns="http://www.w3.org/2000/svg">
<path d="M11 1.08931C10.5909 1.26875 10.1551 1.38769 9.70062 1.44544C10.1681 1.16631 10.5249 0.727687 10.6927 0.199C10.2568 0.458875 9.77556 0.642438 9.26269 0.744875C8.84881 0.304188 8.25894 0.03125 7.61544 0.03125C6.36694 0.03125 5.36181 1.04463 5.36181 2.28694C5.36181 2.46569 5.37694 2.63756 5.41406 2.80119C3.53925 2.70975 1.88031 1.81119 0.765875 0.442375C0.571312 0.779938 0.457188 1.16631 0.457188 1.58225C0.457188 2.36325 0.859375 3.05556 1.45887 3.45637C1.09656 3.4495 0.741125 3.34431 0.44 3.17863C0.44 3.1855 0.44 3.19444 0.44 3.20337C0.44 4.29925 1.22169 5.2095 2.24675 5.41919C2.06319 5.46938 1.86312 5.49344 1.6555 5.49344C1.51112 5.49344 1.36537 5.48519 1.22856 5.45494C1.52075 6.348 2.34988 7.00456 3.33575 7.02588C2.5685 7.62606 1.59431 7.98769 0.539688 7.98769C0.35475 7.98769 0.177375 7.97944 0 7.95675C0.998937 8.60094 2.18281 8.96875 3.4595 8.96875C7.60925 8.96875 9.878 5.53125 9.878 2.55163C9.878 2.45194 9.87456 2.35569 9.86975 2.26013C10.3173 1.9425 10.6934 1.54581 11 1.08931Z" fill="white"/>
</svg>
