<svg width="33" height="24" viewBox="0 0 33 24" fill="none" xmlns="http://www.w3.org/2000/svg">
<path d="M16.7758 15.3304C21.7666 15.3304 26.0281 16.1216 26.0281 19.2878C26.0281 22.4527 21.794 23.2727 16.7758 23.2727C11.785 23.2727 7.52356 22.4815 7.52356 19.3166C7.52356 16.1504 11.7577 15.3304 16.7758 15.3304ZM24.7555 13.4238C26.6636 13.3885 28.7148 13.6504 29.4728 13.8365C31.0787 14.1522 32.135 14.7967 32.5726 15.7333C32.9424 16.5023 32.9424 17.3944 32.5726 18.162C31.9031 19.6148 29.745 20.0811 28.9063 20.2016C28.7331 20.2278 28.5937 20.0772 28.612 19.903C29.0404 15.8774 25.6321 13.9688 24.7503 13.5299C24.7126 13.5103 24.7047 13.4802 24.7086 13.4618C24.7113 13.4487 24.7269 13.4278 24.7555 13.4238ZM8.5861 13.4211L8.94539 13.4243C8.97405 13.4283 8.98837 13.4492 8.99098 13.461C8.99488 13.4807 8.98707 13.5095 8.9506 13.5305C8.06757 13.9693 4.65918 15.8779 5.08767 19.9022C5.10591 20.0777 4.96785 20.227 4.79463 20.2022C3.95588 20.0816 1.7978 19.6153 1.12836 18.1625C0.757179 17.3936 0.757179 16.5028 1.12836 15.7338C1.56597 14.7972 2.62092 14.1527 4.22678 13.8357C4.98608 13.651 7.03607 13.389 8.94539 13.4243L8.5861 13.4211ZM16.7758 0C20.1738 0 22.8984 2.73784 22.8984 6.15688C22.8984 9.5746 20.1738 12.3151 16.7758 12.3151C13.3779 12.3151 10.6532 9.5746 10.6532 6.15688C10.6532 2.73784 13.3779 0 16.7758 0ZM25.0877 1.02676C28.3697 1.02676 30.9472 4.1327 30.0693 7.59234C29.4768 9.92148 27.3317 11.4686 24.9418 11.4057C24.7021 11.3991 24.4664 11.3769 24.2385 11.3376C24.0731 11.3087 23.9897 11.1214 24.0835 10.9826C24.9952 9.63328 25.5148 8.01023 25.5148 6.26796C25.5148 4.44972 24.947 2.75461 23.9611 1.36473C23.9298 1.3215 23.9064 1.25469 23.9376 1.20491C23.9637 1.1643 24.0119 1.14334 24.0574 1.13287C24.3896 1.06475 24.7308 1.02676 25.0877 1.02676ZM8.61133 1.02663C8.96819 1.02663 9.30942 1.06462 9.64283 1.13273C9.68711 1.14321 9.7366 1.16548 9.76265 1.20478C9.79261 1.25456 9.77047 1.32137 9.73921 1.3646C8.75329 2.75448 8.18544 4.44959 8.18544 6.26783C8.18544 8.01009 8.7051 9.63315 9.61678 10.9824C9.71056 11.1213 9.6272 11.3086 9.4618 11.3374C9.23257 11.378 8.99814 11.399 8.7585 11.4055C6.36859 11.4684 4.22353 9.92135 3.63093 7.59221C2.75181 4.13257 5.32927 1.02663 8.61133 1.02663Z" fill="#CBC6C6"/>
</svg>
