<svg width="14" height="8" viewBox="0 0 14 8" fill="none" xmlns="http://www.w3.org/2000/svg">
<path d="M6.85021 7.96038H7.68677C7.68677 7.96038 7.93966 7.93238 8.0683 7.79324C8.18731 7.66548 8.18293 7.42572 8.18293 7.42572C8.18293 7.42572 8.16631 6.30301 8.68785 6.13762C9.20151 5.97486 9.86131 7.2227 10.5605 7.70311C11.089 8.06626 11.4907 7.98663 11.4907 7.98663L13.3607 7.96038C13.3607 7.96038 14.339 7.9 13.8752 7.13082C13.8376 7.06781 13.6048 6.56203 12.4848 5.52245C11.3122 4.43387 11.4697 4.61063 12.882 2.72837C13.7422 1.58203 14.0861 0.88198 13.9785 0.582708C13.8761 0.297437 13.2434 0.372693 13.2434 0.372693L11.1398 0.384943C11.1398 0.384943 10.984 0.363942 10.8676 0.433072C10.7547 0.501327 10.6821 0.658839 10.6821 0.658839C10.6821 0.658839 10.3487 1.54615 9.90419 2.30046C8.96699 3.8922 8.59159 3.97621 8.43845 3.87733C8.0823 3.64719 8.17156 2.95151 8.17156 2.45797C8.17156 0.915233 8.4052 0.27206 7.71565 0.105798C7.48638 0.0506686 7.31837 0.0139159 6.73295 0.00779045C5.98214 -8.51387e-05 5.34597 0.0104156 4.98632 0.186304C4.74655 0.303562 4.56191 0.565207 4.67479 0.580083C4.81393 0.59846 5.12895 0.664964 5.29609 0.892481C5.51223 1.18563 5.50436 1.84543 5.50436 1.84543C5.50436 1.84543 5.62862 3.66119 5.21471 3.88695C4.93031 4.04184 4.54091 3.72594 3.70522 2.28121C3.27731 1.54178 2.95354 0.723594 2.95354 0.723594C2.95354 0.723594 2.89141 0.571332 2.78028 0.489951C2.64552 0.391069 2.4565 0.359567 2.4565 0.359567L0.456104 0.371818C0.456104 0.371818 0.155957 0.380568 0.0456988 0.510953C-0.0523086 0.627337 0.0378232 0.867104 0.0378232 0.867104C0.0378232 0.867104 1.60419 4.531 3.37707 6.37826C5.00382 8.07151 6.85021 7.96038 6.85021 7.96038Z" fill="white"/>
</svg>
