<svg width="18" height="18" viewBox="0 0 18 18" fill="none" xmlns="http://www.w3.org/2000/svg">
<path d="M4.07237 1.7281C4.06378 1.73471 4.05717 1.74198 4.04924 1.74858C4.09747 1.69771 4.16685 1.64287 4.21244 1.61313C5.54316 0.748234 7.08068 0.285721 8.7867 0.285721C10.3824 0.285721 11.8769 0.72643 13.1528 1.49288C13.2453 1.54772 13.4977 1.72083 13.6279 1.87809V1.87875C12.3969 0.521603 8.77877 3.43345 8.77877 3.43345C7.52734 2.46878 6.37634 1.81135 5.51937 1.57745C4.80314 1.38122 4.30759 1.54508 4.07237 1.7281ZM15.022 3.01124C14.9844 2.96962 14.9434 2.93063 14.9057 2.88769C14.5945 2.54609 14.212 2.4635 13.8671 2.48596C13.5532 2.58441 12.1029 3.10705 10.3156 4.79456C10.3156 4.79456 12.3276 6.75099 13.5598 8.75103C14.7908 10.7511 15.5268 12.323 15.0742 14.5047C16.4479 12.9949 17.2857 10.9889 17.2857 8.78605C17.2857 6.55674 16.4274 4.52763 15.022 3.01124ZM11.9509 9.60536C11.4052 8.99286 10.5931 8.11541 9.52077 7.04898C9.28621 6.81574 9.03844 6.5726 8.77811 6.32086C8.77811 6.32086 8.38629 6.71267 7.87621 7.22804V7.22738C7.2234 7.88679 6.377 8.74707 5.90722 9.24922C5.07073 10.1419 2.67426 12.9454 2.53947 14.5172C2.53947 14.5172 2.00625 13.2704 3.17641 10.3949C3.94088 8.51515 6.2508 5.6925 7.21547 4.77276C7.21547 4.77276 6.33406 3.8028 5.22799 3.13282L5.22138 3.13084C5.22138 3.13084 5.20883 3.12093 5.18901 3.10837C4.65712 2.79122 4.07633 2.54675 3.51735 2.51437C2.94648 2.55468 2.58506 2.97226 2.58506 2.97226C1.15853 4.49327 0.285706 6.53758 0.285706 8.78671C0.285706 13.4812 4.09153 17.2877 8.7867 17.2877C11.2783 17.2877 13.5202 16.2134 15.0756 14.5054C15.0749 14.5027 14.8965 13.3821 13.7528 11.7745C13.4838 11.3979 12.5013 10.2225 11.9509 9.60536Z" fill="white"/>
</svg>
